<?xml version="1.0" encoding="UTF-8"?><svg xmlns="http://www.w3.org/2000/svg" xmlns:xlink="http://www.w3.org/1999/xlink" contentScriptType="text/ecmascript" width="375" zoomAndPan="magnify" contentStyleType="text/css" viewBox="0 0 375 374.999991" height="374.999991" preserveAspectRatio="xMidYMid meet" version="1.0"><defs><clipPath id="clip-0"><path d="M 40 11.457031 L 336 11.457031 L 336 363.207031 L 40 363.207031 Z M 40 11.457031 " clip-rule="nonzero"/></clipPath></defs><path fill="rgb(0%, 0%, 0%)" d="M 195.523438 134.214844 L 244.8125 134.214844 L 244.8125 100.480469 C 244.816406 99.964844 244.796875 99.453125 244.75 98.9375 C 244.703125 98.425781 244.632812 97.914062 244.535156 97.40625 C 244.441406 96.902344 244.320312 96.398438 244.171875 95.90625 C 244.027344 95.410156 243.855469 94.925781 243.664062 94.445312 C 243.46875 93.96875 243.25 93.5 243.011719 93.042969 C 242.769531 92.585938 242.507812 92.144531 242.222656 91.714844 C 241.941406 91.28125 241.636719 90.867188 241.308594 90.464844 C 240.984375 90.066406 240.640625 89.683594 240.277344 89.316406 C 239.914062 88.949219 239.53125 88.601562 239.136719 88.269531 C 238.738281 87.941406 238.324219 87.632812 237.894531 87.34375 C 237.46875 87.054688 237.027344 86.789062 236.570312 86.542969 C 236.117188 86.296875 235.652344 86.078125 235.175781 85.878906 C 234.699219 85.679688 234.210938 85.503906 233.71875 85.351562 C 233.226562 85.199219 232.722656 85.074219 232.21875 84.972656 C 231.710938 84.871094 231.203125 84.792969 230.6875 84.742188 C 230.171875 84.6875 229.65625 84.664062 229.140625 84.660156 L 195.523438 84.660156 Z M 195.523438 134.214844 " fill-opacity="1" fill-rule="nonzero"/><path fill="rgb(0%, 0%, 0%)" d="M 180.808594 134.214844 L 180.808594 84.660156 L 147.339844 84.660156 C 146.820312 84.65625 146.300781 84.679688 145.78125 84.726562 C 145.265625 84.777344 144.75 84.851562 144.242188 84.949219 C 143.730469 85.046875 143.226562 85.171875 142.726562 85.320312 C 142.230469 85.46875 141.742188 85.640625 141.261719 85.839844 C 140.78125 86.035156 140.308594 86.257812 139.851562 86.5 C 139.390625 86.746094 138.945312 87.011719 138.511719 87.296875 C 138.082031 87.585938 137.664062 87.894531 137.261719 88.222656 C 136.859375 88.550781 136.476562 88.898438 136.109375 89.265625 C 135.738281 89.632812 135.390625 90.019531 135.0625 90.421875 C 134.734375 90.820312 134.425781 91.238281 134.136719 91.671875 C 133.847656 92.101562 133.582031 92.546875 133.339844 93.003906 C 133.097656 93.464844 132.875 93.933594 132.679688 94.414062 C 132.480469 94.894531 132.308594 95.382812 132.160156 95.878906 C 132.011719 96.375 131.886719 96.878906 131.789062 97.390625 C 131.691406 97.898438 131.617188 98.410156 131.570312 98.929688 C 131.523438 99.445312 131.5 99.964844 131.503906 100.480469 L 131.503906 134.214844 Z M 180.808594 134.214844 " fill-opacity="1" fill-rule="nonzero"/><path fill="rgb(0%, 0%, 0%)" d="M 162.070312 174.089844 L 152.097656 174.089844 C 151.609375 174.113281 151.125 174.085938 150.644531 174.011719 C 150.160156 173.9375 149.691406 173.8125 149.234375 173.644531 C 148.777344 173.472656 148.34375 173.257812 147.929688 173 C 147.515625 172.742188 147.132812 172.445312 146.777344 172.109375 C 146.425781 171.773438 146.109375 171.40625 145.832031 171.003906 C 145.554688 170.605469 145.320312 170.179688 145.125 169.734375 C 144.933594 169.285156 144.789062 168.824219 144.691406 168.347656 C 144.59375 167.871094 144.542969 167.386719 144.542969 166.902344 C 144.542969 166.414062 144.59375 165.933594 144.691406 165.453125 C 144.789062 164.976562 144.933594 164.515625 145.125 164.066406 C 145.320312 163.621094 145.554688 163.195312 145.832031 162.796875 C 146.109375 162.398438 146.425781 162.027344 146.777344 161.691406 C 147.132812 161.355469 147.515625 161.058594 147.929688 160.800781 C 148.34375 160.542969 148.777344 160.328125 149.234375 160.15625 C 149.691406 159.988281 150.160156 159.863281 150.644531 159.789062 C 151.125 159.714844 151.609375 159.6875 152.097656 159.710938 L 162.070312 159.710938 C 162.554688 159.6875 163.039062 159.714844 163.523438 159.789062 C 164.003906 159.863281 164.472656 159.988281 164.929688 160.15625 C 165.386719 160.328125 165.824219 160.542969 166.238281 160.800781 C 166.652344 161.058594 167.035156 161.355469 167.386719 161.691406 C 167.738281 162.027344 168.054688 162.398438 168.332031 162.796875 C 168.613281 163.195312 168.847656 163.621094 169.039062 164.066406 C 169.230469 164.515625 169.375 164.976562 169.472656 165.453125 C 169.574219 165.933594 169.621094 166.414062 169.621094 166.902344 C 169.621094 167.386719 169.574219 167.871094 169.472656 168.347656 C 169.375 168.824219 169.230469 169.285156 169.039062 169.734375 C 168.847656 170.179688 168.613281 170.605469 168.332031 171.003906 C 168.054688 171.40625 167.738281 171.773438 167.386719 172.109375 C 167.035156 172.445312 166.652344 172.742188 166.238281 173 C 165.824219 173.257812 165.386719 173.472656 164.929688 173.644531 C 164.472656 173.8125 164.003906 173.9375 163.523438 174.011719 C 163.039062 174.085938 162.554688 174.113281 162.070312 174.089844 Z M 224.21875 174.089844 L 214.199219 174.089844 C 213.734375 174.089844 213.273438 174.046875 212.816406 173.957031 C 212.359375 173.867188 211.914062 173.734375 211.480469 173.5625 C 211.050781 173.386719 210.640625 173.171875 210.25 172.917969 C 209.859375 172.664062 209.496094 172.375 209.164062 172.050781 C 208.828125 171.726562 208.527344 171.375 208.261719 170.992188 C 207.996094 170.613281 207.769531 170.207031 207.582031 169.78125 C 207.394531 169.359375 207.25 168.917969 207.148438 168.464844 C 207.042969 168.011719 206.988281 167.550781 206.972656 167.085938 C 206.964844 166.609375 207.007812 166.132812 207.09375 165.660156 C 207.183594 165.191406 207.316406 164.730469 207.492188 164.289062 C 207.671875 163.84375 207.890625 163.417969 208.152344 163.015625 C 208.417969 162.617188 208.714844 162.242188 209.050781 161.902344 C 209.386719 161.558594 209.753906 161.25 210.148438 160.980469 C 210.546875 160.710938 210.964844 160.480469 211.40625 160.292969 C 211.847656 160.105469 212.304688 159.964844 212.773438 159.863281 C 213.246094 159.765625 213.71875 159.714844 214.199219 159.710938 L 224.21875 159.710938 C 224.707031 159.6875 225.191406 159.714844 225.675781 159.789062 C 226.15625 159.863281 226.625 159.988281 227.082031 160.15625 C 227.539062 160.328125 227.976562 160.542969 228.386719 160.800781 C 228.800781 161.058594 229.183594 161.355469 229.539062 161.691406 C 229.890625 162.027344 230.207031 162.398438 230.484375 162.796875 C 230.761719 163.195312 231 163.621094 231.191406 164.066406 C 231.382812 164.515625 231.527344 164.976562 231.625 165.453125 C 231.722656 165.933594 231.773438 166.414062 231.773438 166.902344 C 231.773438 167.386719 231.722656 167.871094 231.625 168.347656 C 231.527344 168.824219 231.382812 169.285156 231.191406 169.734375 C 231 170.179688 230.761719 170.605469 230.484375 171.003906 C 230.207031 171.40625 229.890625 171.773438 229.539062 172.109375 C 229.183594 172.445312 228.800781 172.742188 228.386719 173 C 227.976562 173.257812 227.539062 173.472656 227.082031 173.644531 C 226.625 173.8125 226.15625 173.9375 225.675781 174.011719 C 225.191406 174.085938 224.707031 174.113281 224.21875 174.089844 Z M 224.21875 174.089844 " fill-opacity="1" fill-rule="nonzero"/><g clip-path="url(#clip-0)"><path fill="rgb(0%, 0%, 0%)" d="M 188.167969 11.992188 C 184.492188 11.992188 180.824219 12.128906 177.160156 12.402344 C 173.496094 12.671875 169.847656 13.082031 166.214844 13.628906 C 162.578125 14.175781 158.972656 14.855469 155.390625 15.667969 C 151.808594 16.484375 148.261719 17.433594 144.75 18.511719 C 141.238281 19.59375 137.773438 20.804688 134.351562 22.140625 C 130.929688 23.480469 127.566406 24.945312 124.253906 26.539062 C 120.945312 28.128906 117.695312 29.839844 114.515625 31.671875 C 111.332031 33.507812 108.222656 35.457031 105.1875 37.523438 C 102.152344 39.585938 99.195312 41.761719 96.324219 44.050781 C 93.453125 46.335938 90.667969 48.726562 87.976562 51.222656 C 85.28125 53.714844 82.683594 56.308594 80.1875 58.996094 C 77.6875 61.683594 75.292969 64.460938 73 67.328125 C 70.710938 70.195312 68.53125 73.144531 66.460938 76.175781 C 64.390625 79.207031 62.4375 82.308594 60.601562 85.484375 C 58.765625 88.660156 57.050781 91.902344 55.457031 95.207031 C 53.863281 98.511719 52.394531 101.871094 51.050781 105.285156 C 49.710938 108.699219 48.5 112.15625 47.414062 115.660156 C 46.332031 119.167969 45.382812 122.707031 44.566406 126.28125 C 43.75 129.859375 43.070312 133.460938 42.523438 137.085938 C 41.976562 140.710938 41.566406 144.355469 41.292969 148.011719 C 41.019531 151.667969 40.882812 155.332031 40.882812 159 C 40.882812 162.664062 41.023438 166.328125 41.300781 169.984375 C 41.574219 173.640625 41.988281 177.285156 42.535156 180.910156 C 43.085938 184.535156 43.769531 188.136719 44.589844 191.710938 C 45.40625 195.285156 46.359375 198.824219 47.445312 202.328125 C 48.527344 205.832031 49.742188 209.292969 51.085938 212.707031 C 52.429688 216.117188 53.902344 219.476562 55.496094 222.78125 C 57.09375 226.082031 58.808594 229.324219 60.648438 232.5 C 62.488281 235.671875 64.445312 238.773438 66.515625 241.804688 C 68.585938 244.832031 70.769531 247.78125 73.0625 250.644531 C 75.355469 253.511719 77.75 256.289062 80.25 258.976562 C 82.753906 261.660156 85.351562 264.25 88.046875 266.746094 L 183.035156 361.585938 C 183.738281 362.214844 184.527344 362.699219 185.40625 363.042969 C 186.28125 363.390625 187.191406 363.574219 188.132812 363.597656 C 189.097656 363.578125 190.027344 363.394531 190.925781 363.050781 C 191.824219 362.707031 192.636719 362.21875 193.363281 361.585938 L 286.972656 267.925781 C 289.714844 265.457031 292.359375 262.886719 294.910156 260.21875 C 297.457031 257.546875 299.902344 254.785156 302.242188 251.933594 C 304.582031 249.082031 306.8125 246.144531 308.929688 243.121094 C 311.046875 240.101562 313.050781 237.003906 314.933594 233.835938 C 316.820312 230.664062 318.582031 227.425781 320.222656 224.121094 C 321.863281 220.820312 323.378906 217.457031 324.765625 214.039062 C 326.152344 210.621094 327.410156 207.15625 328.535156 203.644531 C 329.660156 200.132812 330.652344 196.585938 331.511719 193 C 332.367188 189.410156 333.089844 185.796875 333.675781 182.15625 C 334.261719 178.515625 334.707031 174.859375 335.015625 171.183594 C 335.324219 167.511719 335.496094 163.828125 335.527344 160.140625 C 335.558594 156.457031 335.453125 152.773438 335.207031 149.09375 C 334.960938 145.414062 334.574219 141.75 334.050781 138.097656 C 333.53125 134.449219 332.871094 130.824219 332.074219 127.222656 C 331.277344 123.621094 330.347656 120.054688 329.28125 116.527344 C 328.214844 112.996094 327.019531 109.507812 325.691406 106.070312 C 324.363281 102.628906 322.90625 99.242188 321.324219 95.910156 C 319.738281 92.578125 318.03125 89.3125 316.203125 86.109375 C 314.371094 82.90625 312.421875 79.777344 310.355469 76.71875 C 308.289062 73.664062 306.113281 70.6875 303.820312 67.796875 C 301.53125 64.902344 299.132812 62.101562 296.632812 59.386719 C 294.128906 56.675781 291.527344 54.058594 288.828125 51.542969 C 286.128906 49.027344 283.335938 46.613281 280.457031 44.304688 C 277.574219 42 274.609375 39.804688 271.5625 37.71875 C 268.515625 35.632812 265.394531 33.667969 262.199219 31.816406 C 259.003906 29.96875 255.742188 28.238281 252.414062 26.636719 C 249.089844 25.03125 245.707031 23.550781 242.269531 22.203125 C 238.832031 20.851562 235.347656 19.632812 231.820312 18.542969 C 228.289062 17.453125 224.722656 16.5 221.121094 15.679688 C 217.519531 14.859375 213.894531 14.171875 210.242188 13.625 C 206.585938 13.078125 202.917969 12.667969 199.234375 12.394531 C 195.550781 12.121094 191.859375 11.988281 188.167969 11.992188 Z M 116.984375 100.480469 C 116.984375 99.488281 117.035156 98.496094 117.128906 97.507812 C 117.226562 96.519531 117.371094 95.535156 117.566406 94.5625 C 117.757812 93.585938 118 92.625 118.289062 91.671875 C 118.574219 90.722656 118.910156 89.785156 119.289062 88.867188 C 119.667969 87.949219 120.09375 87.050781 120.5625 86.175781 C 121.03125 85.296875 121.539062 84.445312 122.089844 83.617188 C 122.644531 82.792969 123.234375 81.992188 123.863281 81.222656 C 124.496094 80.453125 125.160156 79.71875 125.863281 79.015625 C 126.566406 78.308594 127.300781 77.640625 128.070312 77.011719 C 128.839844 76.378906 129.636719 75.785156 130.464844 75.230469 C 131.289062 74.679688 132.140625 74.164062 133.019531 73.695312 C 133.894531 73.222656 134.792969 72.796875 135.710938 72.414062 C 136.632812 72.03125 137.566406 71.695312 138.519531 71.40625 C 139.46875 71.113281 140.433594 70.871094 141.410156 70.671875 C 142.386719 70.476562 143.367188 70.328125 144.359375 70.226562 C 145.351562 70.128906 146.34375 70.074219 147.339844 70.074219 L 229.140625 70.074219 C 230.136719 70.074219 231.128906 70.128906 232.121094 70.230469 C 233.109375 70.328125 234.09375 70.480469 235.070312 70.675781 C 236.042969 70.871094 237.007812 71.117188 237.960938 71.410156 C 238.910156 71.699219 239.847656 72.035156 240.765625 72.417969 C 241.683594 72.800781 242.582031 73.230469 243.457031 73.699219 C 244.335938 74.171875 245.1875 74.683594 246.011719 75.238281 C 246.839844 75.789062 247.636719 76.382812 248.40625 77.015625 C 249.171875 77.648438 249.90625 78.316406 250.609375 79.019531 C 251.3125 79.722656 251.980469 80.460938 252.609375 81.226562 C 253.238281 81.996094 253.832031 82.796875 254.382812 83.621094 C 254.933594 84.449219 255.445312 85.300781 255.914062 86.179688 C 256.382812 87.054688 256.804688 87.953125 257.1875 88.871094 C 257.566406 89.789062 257.898438 90.722656 258.1875 91.675781 C 258.476562 92.625 258.71875 93.589844 258.910156 94.5625 C 259.105469 95.539062 259.25 96.519531 259.347656 97.507812 C 259.445312 98.496094 259.492188 99.488281 259.492188 100.480469 L 259.492188 174.429688 C 259.496094 175.425781 259.445312 176.414062 259.347656 177.40625 C 259.253906 178.394531 259.105469 179.375 258.914062 180.351562 C 258.71875 181.328125 258.480469 182.289062 258.191406 183.242188 C 257.902344 184.191406 257.570312 185.128906 257.191406 186.046875 C 256.808594 186.964844 256.386719 187.863281 255.917969 188.742188 C 255.449219 189.617188 254.941406 190.46875 254.386719 191.296875 C 253.835938 192.125 253.246094 192.921875 252.617188 193.691406 C 251.984375 194.460938 251.320312 195.199219 250.617188 195.902344 C 249.914062 196.609375 249.179688 197.277344 248.410156 197.910156 C 247.640625 198.539062 246.84375 199.132812 246.019531 199.6875 C 245.191406 200.242188 244.339844 200.753906 243.460938 201.226562 C 242.585938 201.695312 241.6875 202.125 240.769531 202.507812 C 239.851562 202.890625 238.914062 203.226562 237.960938 203.519531 C 237.011719 203.808594 236.046875 204.054688 235.070312 204.25 C 234.09375 204.449219 233.109375 204.597656 232.121094 204.699219 C 231.128906 204.800781 230.136719 204.851562 229.140625 204.855469 L 147.339844 204.855469 C 146.34375 204.851562 145.347656 204.800781 144.359375 204.699219 C 143.367188 204.601562 142.382812 204.453125 141.40625 204.253906 C 140.433594 204.058594 139.46875 203.8125 138.515625 203.523438 C 137.5625 203.230469 136.628906 202.894531 135.707031 202.511719 C 134.789062 202.128906 133.890625 201.703125 133.015625 201.230469 C 132.136719 200.761719 131.285156 200.246094 130.457031 199.691406 C 129.632812 199.140625 128.832031 198.546875 128.066406 197.914062 C 127.296875 197.28125 126.5625 196.613281 125.859375 195.90625 C 125.15625 195.203125 124.488281 194.464844 123.859375 193.695312 C 123.230469 192.925781 122.636719 192.128906 122.085938 191.300781 C 121.535156 190.472656 121.023438 189.621094 120.554688 188.742188 C 120.089844 187.867188 119.664062 186.96875 119.285156 186.046875 C 118.90625 185.128906 118.570312 184.195312 118.285156 183.242188 C 117.996094 182.292969 117.753906 181.328125 117.5625 180.351562 C 117.371094 179.378906 117.226562 178.394531 117.128906 177.40625 C 117.03125 176.417969 116.984375 175.425781 116.984375 174.429688 Z M 269.921875 276.488281 C 269.589844 277.007812 269.195312 277.476562 268.738281 277.894531 C 268.28125 278.308594 267.777344 278.660156 267.230469 278.945312 C 266.679688 279.230469 266.105469 279.4375 265.5 279.570312 C 264.898438 279.703125 264.285156 279.757812 263.667969 279.726562 L 112.632812 279.726562 C 112.027344 279.75 111.425781 279.691406 110.835938 279.558594 C 110.242188 279.421875 109.679688 279.210938 109.144531 278.925781 C 108.609375 278.640625 108.117188 278.292969 107.675781 277.878906 C 107.230469 277.464844 106.847656 277 106.527344 276.488281 C 106.171875 276.003906 105.886719 275.480469 105.679688 274.917969 C 105.46875 274.355469 105.339844 273.773438 105.289062 273.175781 C 105.242188 272.578125 105.273438 271.984375 105.390625 271.394531 C 105.507812 270.808594 105.703125 270.246094 105.976562 269.710938 L 134.425781 206.945312 L 147.726562 213.203125 L 138.195312 233.902344 L 238.121094 233.902344 L 228.574219 213.203125 L 241.90625 206.945312 L 270.34375 269.710938 C 270.609375 270.246094 270.800781 270.804688 270.921875 271.386719 C 271.039062 271.972656 271.078125 272.558594 271.042969 273.15625 C 271.003906 273.75 270.890625 274.328125 270.703125 274.894531 C 270.511719 275.460938 270.25 275.988281 269.921875 276.488281 Z M 269.921875 276.488281 " fill-opacity="1" fill-rule="nonzero"/></g><path fill="rgb(0%, 0%, 0%)" d="M 131.535156 248.65625 L 124.019531 265.335938 L 252.429688 265.335938 L 244.78125 248.65625 Z M 131.535156 248.65625 " fill-opacity="1" fill-rule="nonzero"/></svg>