<?xml version="1.0" encoding="UTF-8"?><svg xmlns="http://www.w3.org/2000/svg" xmlns:xlink="http://www.w3.org/1999/xlink" contentScriptType="text/ecmascript" width="375" zoomAndPan="magnify" contentStyleType="text/css" viewBox="0 0 375 374.999991" height="374.999991" preserveAspectRatio="xMidYMid meet" version="1.0"><defs><clipPath id="clip-0"><path d="M 73.320312 23.507812 L 301.320312 23.507812 L 301.320312 351.257812 L 73.320312 351.257812 Z M 73.320312 23.507812 " clip-rule="nonzero"/></clipPath></defs><g clip-path="url(#clip-0)"><path fill="rgb(100%, 100%, 100%)" d="M 288.105469 165.789062 L 194.53125 165.789062 L 194.53125 87.648438 L 288.105469 87.648438 Z M 278.304688 220.320312 C 277.722656 229.496094 270.285156 236.9375 261.121094 237.519531 C 250.007812 238.222656 240.847656 229.050781 241.546875 217.929688 C 242.128906 208.757812 249.566406 201.3125 258.730469 200.734375 C 269.84375 200.03125 279.007812 209.199219 278.304688 220.320312 Z M 180.09375 165.789062 L 86.515625 165.789062 L 86.515625 87.648438 L 180.09375 87.648438 Z M 133.074219 220.320312 C 132.496094 229.496094 125.058594 236.9375 115.894531 237.519531 C 104.78125 238.222656 95.617188 229.050781 96.320312 217.929688 C 96.902344 208.757812 104.335938 201.3125 113.5 200.734375 C 124.613281 200.03125 133.777344 209.199219 133.074219 220.320312 Z M 142.054688 54.828125 L 232.566406 54.828125 C 236.59375 54.828125 239.855469 58.09375 239.855469 62.121094 C 239.855469 66.148438 236.59375 69.414062 232.566406 69.414062 L 142.054688 69.414062 C 138.03125 69.414062 134.765625 66.148438 134.765625 62.121094 C 134.765625 58.09375 138.03125 54.828125 142.054688 54.828125 Z M 277.875 41.78125 L 240.664062 41.78125 C 240.664062 35.449219 235.539062 30.320312 229.214844 30.320312 L 193.820312 30.320312 L 193.820312 23.570312 L 180.804688 23.570312 L 180.804688 30.320312 L 145.410156 30.320312 C 139.085938 30.320312 133.957031 35.449219 133.957031 41.78125 L 96.75 41.78125 C 83.808594 41.78125 73.316406 52.28125 73.316406 65.238281 L 73.316406 246.503906 C 73.316406 259.460938 83.808594 269.960938 96.75 269.960938 L 108.148438 269.960938 L 86.515625 351.25 L 99.984375 351.25 L 121.617188 269.960938 L 253.007812 269.960938 L 274.640625 351.25 L 288.105469 351.25 L 266.472656 269.960938 L 277.875 269.960938 C 290.816406 269.960938 301.308594 259.460938 301.308594 246.503906 L 301.308594 65.238281 C 301.308594 52.28125 290.816406 41.78125 277.875 41.78125 " fill-opacity="1" fill-rule="nonzero"/></g><path fill="rgb(100%, 100%, 100%)" d="M 266.246094 334.613281 L 107.859375 334.613281 L 104.636719 346.074219 L 269.46875 346.074219 L 266.246094 334.613281 " fill-opacity="1" fill-rule="nonzero"/><path fill="rgb(100%, 100%, 100%)" d="M 259.792969 310.113281 L 115.179688 310.113281 L 111.75 321.574219 L 263.222656 321.574219 L 259.792969 310.113281 " fill-opacity="1" fill-rule="nonzero"/><path fill="rgb(100%, 100%, 100%)" d="M 252.8125 284.050781 L 121.117188 284.050781 L 117.996094 295.511719 L 255.9375 295.511719 L 252.8125 284.050781 " fill-opacity="1" fill-rule="nonzero"/></svg>